# xmcd
#
# Track frame offsets:
#	150
#	16798
#	32076
#	49157
#	72698
#	90216
#	106937
#	123639
#	139587
#	155340
#	172655
#	192719
#	209296
#	225112
#	247024
#	262876
#	276958
#	292691
#	311035
#	333360
#
# Disc length: 4688
#
# Revision: 1
# Processed by: cddbd v1.5.1PL0 Copyright (c) Steve Scherf et al.
# Submitted via: CDex 1.50
# Normalized: r0:TRMNUM
#
DISCID=10124e14
DTITLE=Variado - Boom-Boom
DYEAR=1999
DGENRE=Salsa
TTITLE0=Loona- Mamboleo
TTITLE1=Enrique Iglesias- Bailamos
TTITLE2=2 Elvissa- I Wanna be your toy
TTITLE3=Lou Vega-Mambo Nr 5
TTITLE4=Mr President- Space Gate
TTITLE5=Madonna- Beatiful Stranger
TTITLE6=aptain Jack- Dream a Dream
TTITLE7=Funky Diamonds- I wanna have
TTITLE8=Ritmo Ritmo- Matador
TTITLE9=Backstreet Boys- Larger than life
TTITLE10=Masterboy- Porque te vas
TTITLE11=Mary Prado- I get up
TTITLE12=Mojito- Eo Ea
TTITLE13=Desirless- Voyage Voyage
TTITLE14=Bellini- Saturday Night
TTITLE15=Carina- Pain in my heart
TTITLE16=Fancy- Disco
TTITLE17=Elvis Crespo- Suavemente
TTITLE18=Modern talking-Sexy Sexy lover
TTITLE19=Ricky Martin- Livin' la vida loca
EXTD=YEAR: 1999
EXTT0=
EXTT1=
EXTT2=
EXTT3=
EXTT4=
EXTT5=
EXTT6=
EXTT7=
EXTT8=
EXTT9=
EXTT10=
EXTT11=
EXTT12=
EXTT13=
EXTT14=
EXTT15=
EXTT16=
EXTT17=
EXTT18=
EXTT19=
PLAYORDER=
